<svg width="720" height="520" viewBox="0 0 720 520" fill="none" xmlns="http://www.w3.org/2000/svg"><rect width="720" height="520" rx="36" fill="#FFF4D8"/><path d="M64 310H206V456H64V310Z" fill="#F0D7A2"/><path d="M42 318L135 242L228 318H42Z" fill="#33691E"/><rect x="116" y="370" width="36" height="86" fill="#795548"/><path d="M278 310H412V456H278V310Z" fill="#E7C78E"/><path d="M255 318L345 242L435 318H255Z" fill="#2E7D32"/><circle cx="560" cy="278" r="58" fill="#43A047"/><rect x="548" y="322" width="24" height="134" rx="12" fill="#6D4C41"/><path d="M0 450C161 388 302 405 436 457C548 501 620 486 720 452V520H0V450Z" fill="#BBD99B"/></svg>
