<svg width="720" height="520" viewBox="0 0 720 520" fill="none" xmlns="http://www.w3.org/2000/svg"><rect width="720" height="520" rx="36" fill="#EAF4DA"/><circle cx="570" cy="96" r="60" fill="#FFD95B"/><path d="M0 338C85 250 158 266 230 336C315 420 407 379 505 300C588 232 652 250 720 303V520H0V338Z" fill="#2E7D32"/><path d="M0 416C121 344 231 351 343 410C471 476 589 434 720 381V520H0V416Z" fill="#8CBF6F"/><path d="M0 470C177 420 355 435 520 480C603 503 664 490 720 470V520H0V470Z" fill="#DCEBC4"/></svg>
