<svg width="1200" height="650" viewBox="0 0 1200 650" fill="none" xmlns="http://www.w3.org/2000/svg">
  <rect width="1200" height="650" fill="#FDF8E7"/>
  <circle cx="1010" cy="135" r="74" fill="#FFD95B" opacity="0.75"/>
  <path d="M0 390C135 285 250 320 356 404C469 493 565 443 672 354C799 248 955 272 1200 388V650H0V390Z" fill="#2F6F3E"/>
  <path d="M0 445C157 371 277 382 410 452C549 525 692 466 814 397C947 322 1068 353 1200 429V650H0V445Z" fill="#6FA45D"/>
  <path d="M0 520C121 455 256 463 383 523C521 588 631 548 766 480C919 403 1070 447 1200 513V650H0V520Z" fill="#A8C980"/>
  <path d="M0 590C176 526 351 545 492 594C648 648 772 624 914 564C1038 512 1114 533 1200 566V650H0V590Z" fill="#DDECC9"/>
  <path d="M914 500H1004V586H914V500Z" fill="#F6E2B5"/>
  <path d="M899 504L958 456L1019 504H899Z" fill="#2E7D32"/>
  <rect x="950" y="535" width="26" height="51" rx="4" fill="#795548"/>
  <rect x="926" y="520" width="22" height="22" rx="4" fill="#90CAF9"/>
  <circle cx="1082" cy="493" r="33" fill="#3C873D"/>
  <rect x="1074" y="520" width="15" height="70" rx="7" fill="#6D4C41"/>
  <path d="M34 85C88 50 147 51 206 82C146 93 87 104 34 85Z" fill="#7CB342" opacity="0.45"/>
  <path d="M1052 108C1071 93 1090 93 1110 105" stroke="#5D7B4A" stroke-width="5" stroke-linecap="round" opacity="0.7"/>
  <path d="M1098 154C1117 139 1136 139 1156 151" stroke="#5D7B4A" stroke-width="5" stroke-linecap="round" opacity="0.7"/>
</svg>
