<svg width="160" height="160" viewBox="0 0 160 160" fill="none" xmlns="http://www.w3.org/2000/svg">
  <rect width="160" height="160" rx="40" fill="#FFFFFF"/>
  <circle cx="80" cy="80" r="58" fill="#E3F2FD" stroke="#00897B" stroke-width="5"/>
  <path d="M43 100C58 76 78 66 105 84C119 94 128 92 138 85V126H43V100Z" fill="#26A69A"/>
  <path d="M35 119C62 100 83 102 105 117C118 126 130 126 140 119V139H35V119Z" fill="#00695C"/>
  <path d="M93 34C105 40 113 51 117 64C101 58 91 48 93 34Z" fill="#FBC02D"/>
  <path d="M62 90L82 63L102 90H62Z" fill="#FFFFFF"/>
  <path d="M82 63L102 90H91L82 77L72 90H62L82 63Z" fill="#1565C0"/>
  <text x="80" y="148" text-anchor="middle" font-family="Arial" font-weight="700" font-size="18" fill="#00695C">KKN</text>
</svg>
