<svg width="160" height="160" viewBox="0 0 160 160" fill="none" xmlns="http://www.w3.org/2000/svg">
  <rect width="160" height="160" rx="38" fill="#E8F6DA"/>
  <circle cx="80" cy="80" r="62" fill="#FFF9E8" stroke="#2E7D32" stroke-width="6"/>
  <path d="M30 105C51 83 74 87 94 101C110 112 126 110 139 101V125H30V105Z" fill="#7CB342"/>
  <path d="M27 119C52 99 76 101 101 118C116 128 130 129 142 122V139H27V119Z" fill="#2E7D32"/>
  <path d="M55 82L80 59L105 82V118H55V82Z" fill="#1B5E20"/>
  <path d="M68 118V94H87V118" fill="#FFF8E1"/>
  <path d="M48 85L80 55L112 85" stroke="#F9A825" stroke-width="8" stroke-linecap="round" stroke-linejoin="round"/>
  <circle cx="119" cy="71" r="13" fill="#43A047"/>
  <rect x="116" y="80" width="7" height="27" rx="3.5" fill="#5D4037"/>
  <circle cx="103" cy="46" r="14" fill="#FDD835" opacity="0.75"/>
</svg>
